<?xml version="1.0" encoding="utf-8"?>
<!-- Generator: Adobe Illustrator 16.0.0, SVG Export Plug-In . SVG Version: 6.00 Build 0)  -->
<!DOCTYPE svg PUBLIC "-//W3C//DTD SVG 1.1//EN" "http://www.w3.org/Graphics/SVG/1.1/DTD/svg11.dtd">
<svg version="1.1" xmlns="http://www.w3.org/2000/svg" xmlns:xlink="http://www.w3.org/1999/xlink" x="0px" y="0px"
	 width="499.774px" height="499.774px" viewBox="0 0 499.774 499.774" enable-background="new 0 0 499.774 499.774"
	 xml:space="preserve">
<g id="Layer_2">
</g>
<g id="Layer_4">
</g>
<g id="Layer_5">
</g>
<g id="Layer_6">
</g>
<g id="Layer_7">
</g>
<g id="Layer_10">
</g>
<g id="Layer_8">
</g>
<g id="Layer_9">
</g>
<g id="Layer_3">
</g>
<g id="Layer_1" display="none">
	
		<image display="inline" overflow="visible" width="501" height="501" xlink:href="1DEC8D37.jpg"  transform="matrix(0.9999 0 0 0.9999 -0.9233 -0.9106)">
	</image>
</g>
<g id="Layer_11">
</g>
<g id="Layer_12">
	<g>
		<defs>
			<circle id="SVGID_1_" cx="249.887" cy="249.887" r="249.887"/>
		</defs>
		<clipPath id="SVGID_2_">
			<use xlink:href="#SVGID_1_"  overflow="visible"/>
		</clipPath>
		<g clip-path="url(#SVGID_2_)">
			<g>
				<radialGradient id="SVGID_3_" cx="244.4937" cy="221.4644" r="84.7119" gradientUnits="userSpaceOnUse">
					<stop  offset="0" style="stop-color:#F44336"/>
					<stop  offset="1" style="stop-color:#F44336;stop-opacity:0"/>
				</radialGradient>
				<path opacity="0.7" fill="url(#SVGID_3_)" d="M318.994,194.006c-0.949,0.113-1.876,0.289-2.784,0.502
					c1.55-17.825,6.617-34.473,6.617-50.606l-76.75,1.188h-0.25l-76.75-1.25c-0.915,30.417-0.239,42.79,0.938,48.17
					c-0.007-0.001-0.014-0.002-0.021-0.003c-10.5-1.25-16.75,6.921-16.75,17s7.499,18.25,16.751,18.25
					c2.192,0,4.28-0.472,6.199-1.306c0.904,10.013,2.412,18.962,5.258,25.89c6.042,14.25,23.875,28.667,36.125,37
					s24.084,10.25,28.125,10.25s16.375-1.917,28.625-10.25s30.083-22.625,36.125-36.875c1.821-4.297,2.851-12.807,3.647-23.505
					c1.549,0.515,3.19,0.796,4.894,0.796c9.252,0,16.751-8.17,16.751-18.25S329.494,192.756,318.994,194.006z"/>
				<ellipse fill="#112F4B" cx="204.843" cy="212.319" rx="8.515" ry="9.326"/>
				<ellipse fill="#112F4B" cx="282.523" cy="212.319" rx="8.515" ry="9.326"/>
				<path fill="#EA6A6A" d="M243.158,242.122c-8.414,0-13.483-6.286-13.483-3.244c0,3.041,2.433,8.819,13.483,8.819
					c11.049,0,13.481-5.779,13.481-8.819C256.639,235.836,251.571,242.122,243.158,242.122z"/>
				<path fill="#E88585" d="M243.158,273.083c-2.911,0-4.664-2.175-4.664-1.122c0,1.052,0.841,3.051,4.664,3.051
					c3.82,0,4.663-1.999,4.663-3.051C247.82,270.909,246.068,273.083,243.158,273.083z"/>
				<path fill="#FCE8E8" d="M243.158,259.752c-3.186,0-6.069,0.253-8.612,0.619c-8.104,1.166-10.255-1.756-0.12-2.912
					c2.443-0.278,5.33-0.444,8.732-0.444c2.888,0,5.404,0.12,7.593,0.326c11.087,1.048,8.595,3.931-0.353,2.849
					C248.204,259.924,245.784,259.752,243.158,259.752z"/>
				<circle fill="#FFFFFF" cx="201.182" cy="210.201" r="2.547"/>
				<circle fill="#FFFFFF" cx="278.861" cy="210.201" r="2.546"/>
				<path fill="#5396A4" d="M192.842,195.714c4.28-0.074,8.329,8.07,24.131,7.592c2.881-0.086,1.27,9.604-13.74,4.472
					C190.237,203.334,190.257,195.757,192.842,195.714z"/>
				<path fill="#5396A4" d="M292.805,195.714c-4.28-0.074-8.33,8.07-24.133,7.592c-2.881-0.086-1.27,9.604,13.74,4.472
					C295.41,203.334,295.39,195.757,292.805,195.714z"/>
			</g>
		</g>
	</g>
</g>
</svg>
