<?xml version="1.0" encoding="utf-8"?>
<!-- Generator: Adobe Illustrator 16.0.0, SVG Export Plug-In . SVG Version: 6.00 Build 0)  -->
<!DOCTYPE svg PUBLIC "-//W3C//DTD SVG 1.1//EN" "http://www.w3.org/Graphics/SVG/1.1/DTD/svg11.dtd">
<svg version="1.1" xmlns="http://www.w3.org/2000/svg" xmlns:xlink="http://www.w3.org/1999/xlink" x="0px" y="0px"
	 width="499.774px" height="499.772px" viewBox="0 0 499.774 499.772" enable-background="new 0 0 499.774 499.772"
	 xml:space="preserve">
<g id="Layer_2">
</g>
<g id="Layer_12">
	<g>
		<defs>
			<circle id="SVGID_1_" cx="249.887" cy="249.887" r="249.887"/>
		</defs>
		<clipPath id="SVGID_2_">
			<use xlink:href="#SVGID_1_"  overflow="visible"/>
		</clipPath>
		<g clip-path="url(#SVGID_2_)">
			<g>
				<ellipse fill="#112F4B" cx="204.843" cy="212.319" rx="8.515" ry="9.326"/>
				<circle fill="#FFFFFF" cx="201.131" cy="208.201" r="2.547"/>
				<ellipse fill="#112F4B" cx="282.523" cy="212.319" rx="8.515" ry="9.326"/>
				<circle fill="#FFFFFF" cx="278.811" cy="208.201" r="2.546"/>
				<path fill="#5396A4" d="M295.093,196.109c-4.026,1.455-10.492-4.941-25.291,0.623c-2.698,1.014-4.309-8.676,11.555-8.676
					C295.093,188.056,297.526,195.232,295.093,196.109z"/>
				<path fill="#5396A4" d="M190.897,196.109c4.026,1.455,10.492-4.941,25.29,0.623c2.698,1.014,4.309-8.676-11.554-8.676
					C190.897,188.056,188.465,195.232,190.897,196.109z"/>
				<path fill="#CACCBA" d="M243.158,242.122c-8.414,0-13.483-6.286-13.483-3.244c0,3.041,2.433,8.819,13.483,8.819
					c11.049,0,13.481-5.779,13.481-8.819C256.639,235.836,251.571,242.122,243.158,242.122z"/>
				<path fill="#CACCBA" d="M243.158,273.083c-2.911,0-4.664-2.175-4.664-1.122c0,1.052,0.841,3.051,4.664,3.051
					c3.82,0,4.663-1.999,4.663-3.051C247.82,270.909,246.068,273.083,243.158,273.083z"/>
				<path fill="#FFFFFF" d="M243.158,260.334c-13.337,0-21.371-4.431-21.371-3.055s3.856,5.792,21.371,5.792
					c17.514,0,21.37-4.416,21.37-5.792S256.494,260.334,243.158,260.334z"/>
			</g>
		</g>
	</g>
</g>
</svg>
