<?xml version="1.0" encoding="utf-8"?>
<!-- Generator: Adobe Illustrator 16.0.0, SVG Export Plug-In . SVG Version: 6.00 Build 0)  -->
<!DOCTYPE svg PUBLIC "-//W3C//DTD SVG 1.1//EN" "http://www.w3.org/Graphics/SVG/1.1/DTD/svg11.dtd">
<svg version="1.1" xmlns="http://www.w3.org/2000/svg" xmlns:xlink="http://www.w3.org/1999/xlink" x="0px" y="0px"
	 width="499.774px" height="499.772px" viewBox="0 0 499.774 499.772" enable-background="new 0 0 499.774 499.772"
	 xml:space="preserve">
<g id="Layer_2">
</g>
<g id="Layer_12">
	<g>
		<defs>
			<circle id="SVGID_1_" cx="249.887" cy="249.887" r="249.887"/>
		</defs>
		<clipPath id="SVGID_2_">
			<use xlink:href="#SVGID_1_"  overflow="visible"/>
		</clipPath>
		<g clip-path="url(#SVGID_2_)">
			<g>
				<path fill="#CACCBA" d="M223.889,309.449l22.854,42.682l23.599-42.963c0,0-8.328-1.641-9.828-2.141s-2.432-1.248-2.438-1.688
					s-0.125-9.563-0.125-9.563l-22.875-0.688c0,0,0.063,9.938,0.031,10.406s-1.094,0.781-2.656,1.531
					S223.889,309.449,223.889,309.449z"/>
				<path fill="#D8DBCA" d="M318.994,194.006c-0.949,0.113-1.876,0.289-2.784,0.502c1.55-17.825,6.617-34.473,6.617-50.606
					l-76.75,1.188h-0.25l-76.75-1.25c-0.915,30.417-0.239,42.79,0.938,48.17c-0.007-0.001-0.014-0.002-0.021-0.003
					c-10.5-1.25-16.75,6.921-16.75,17s7.499,18.25,16.751,18.25c2.192,0,4.28-0.472,6.199-1.306
					c0.904,10.013,2.412,18.961,5.258,25.89c6.042,14.25,23.875,28.667,36.125,37s24.084,10.25,28.125,10.25
					s16.375-1.917,28.625-10.25s30.083-22.625,36.125-36.875c1.821-4.296,2.851-12.807,3.647-23.505
					c1.549,0.515,3.19,0.796,4.894,0.796c9.252,0,16.751-8.171,16.751-18.25S329.494,192.756,318.994,194.006z"/>
				<path fill="#CACCBA" d="M221.702,249.558c-18.549-42.004-14.125-103.844-14.125-103.844l-38.5-1.875
					c-0.44,35.176,1.135,38.692,2.233,48.368c-0.436-0.075-0.872-0.148-1.316-0.201c-7.774-0.925-13.218,3.313-15.521,9.667
					c0,0,1.901-6.012,16.604-0.554c0.014,0.326,0.571,1.547,0.583,1.888c0.27,7.104,3.505,16.114,4.083,22.583
					c0.901,10.098,2.842,19.273,5.708,26.25c6.042,14.25,23.875,28.667,36.125,37s24.084,10.25,28.125,10.25
					c3.293,0,12.096-1.273,21.871-6.256C268.497,292.363,234.944,279.542,221.702,249.558z"/>
				<path fill="#5396A4" d="M171.077,201.089v-52l-17.375-9.25c0,0,5.375,34.149,7.875,42.149S171.077,201.089,171.077,201.089z"/>
				<path fill="#5396A4" d="M321.744,147.756l-5.583,40.5c0,0,16.905-28.656,19.072-34.573s4.843-39.511,3.677-43.594
					s-2.666-7.667-4.166-8.667s-2.333-1.583-5.833-1.667s-58.001-13.5-65.834-16.5s-60.333-20-67.167-21.333
					s-12.164-1.813-15.167-1.667s-3.75-0.584-12.167,2.833s-17,16.333-17,16.333l-4.052,5.673l-0.401,1.04
					c0,0-0.38,16.037,21.787,32.787s53.333,24.833,57.667,26c4.334,1.167,25.918,5.75,51.334,7.333S321.744,147.756,321.744,147.756
					z"/>
				<path fill="#538C94" d="M321.577,147.339c0,0-20.375,7.875-67.125,2.375s-73.875-24.375-73.875-24.375
					c-36.25-24.625-32.601-40.875-32.601-40.875s-11.899,15.5-9.899,34s34.5,32.75,34.5,32.75s21.25,9.5,51,11.5
					s33.5,0.625,56.875-2.5S321.577,147.339,321.577,147.339z"/>
				<path fill="#538C94" d="M316.994,183.339l-4.667,27.833c0,0,21.976-42.365,23.215-58.5
					C335.542,152.673,328.545,168.058,316.994,183.339z"/>
			</g>
			<path fill="#508F98" d="M189.577,497.621c0,0-13.292-158.209-13.5-160.141s0.125-11.016,6.125-16.432s11.802-6.84,13.25-7.076
				s29.875-4.879,29.875-4.879l21.375,41.998l23.25-42.001c0,0,33.667,4.362,36.375,5.249s7.833,3.083,12.333,8.417
				s5.292,12.176,5.417,14.114s-16.75,163.219-16.75,163.219s-32.25,5.5-60,5.5S189.577,497.621,189.577,497.621z"/>
		</g>
	</g>
</g>
</svg>
